<?xml version="1.0" encoding="UTF-8" standalone="no"?>
<!DOCTYPE svg PUBLIC "-//W3C//DTD SVG 1.0//EN" "http://www.w3.org/TR/2001/REC-SVG-20010904/DTD/svg10.dtd">
<!-- Created with Inkscape (http://www.inkscape.org/) -->
<svg xmlns:svg="http://www.w3.org/2000/svg" xmlns="http://www.w3.org/2000/svg" xmlns:inkscape="http://www.inkscape.org/namespaces/inkscape" version="1.0" width="800" height="600" id="svg2">
  <defs id="defs4">
    <inkscape:path-effect effect="bend_path" id="path-effect3534"/>
  </defs>
  <g id="layer1">
    <path d="M 54.403998,361.63864 L 4.6358935,588.61575 L 716.63624,588.61575 C 756.70715,588.61575 788.98694,556.33596 788.98699,516.265 L 788.98699,433.98939 C 788.98699,393.91848 756.7071,361.63864 716.63624,361.63864 L 54.403998,361.63864 z" id="rect3663" style="opacity: 1; fill: rgb(0, 0, 0); fill-opacity: 1; fill-rule: nonzero; stroke: none; stroke-width: 5.398; stroke-linecap: butt; stroke-linejoin: round; stroke-miterlimit: 4; stroke-opacity: 1;"/>
    <path d="M 312.43964,555.67674 L 274.28588,555.67674 L 306.62811,424.66564 L 252.30324,424.66564 L 258.74643,398.37757 L 404.66558,398.37757 L 398.2224,424.66564 L 344.65556,424.66564 L 312.43964,555.67674 z M 482.61549,555.67674 L 441.935,555.67674 L 418.57163,398.37757 L 456.59901,398.37757 L 470.23447,517.37129 L 546.921,398.37757 L 584.69574,398.37757 L 482.61549,555.67674 z" id="text3669" style="font-size: 51.8044px; font-style: italic; font-variant: normal; font-weight: bold; font-stretch: normal; text-align: start; line-height: 100%; text-anchor: start; fill: rgb(255, 255, 255); fill-opacity: 1; stroke: none; stroke-width: 1px; stroke-linecap: butt; stroke-linejoin: miter; stroke-opacity: 1; font-family: Arial;"/>
    <path d="M 132.98629,14.566162 C 109.49597,115.84245 86.068619,217.13158 62.654065,318.42299 C 100.52942,318.42299 138.40478,318.42299 176.28019,318.42299 C 185.86222,277.1268 195.58474,239.82096 205.04379,198.50047 L 295.99296,198.50047 C 286.74826,238.47587 277.45041,278.44077 268.24032,318.42299 C 306.11568,318.42299 343.99109,318.42299 381.86645,318.42299 C 405.80798,215.10095 429.71264,111.77163 453.45095,8.4095033 C 415.68257,8.4095033 377.91423,8.4095033 340.14584,8.4095033 C 331.85126,44.081803 323.41763,79.726529 315.03574,115.38146 L 224.08799,115.38146 C 232.03598,81.049361 239.9574,42.749597 247.8647,8.4095033 C 210.04288,8.4095033 172.22095,8.4095033 134.39908,8.4095033 L 133.48528,12.391394 L 132.98629,14.566162 z" id="text3678" style="font-size: 94.3488px; font-style: italic; font-variant: normal; font-weight: bold; font-stretch: normal; text-align: start; line-height: 100%; text-anchor: start; fill: rgb(0, 0, 0); fill-opacity: 1; stroke: none; stroke-width: 1px; stroke-linecap: butt; stroke-linejoin: miter; stroke-opacity: 1; font-family: Arial;"/>
    <path d="M 628.24229,8.1529736 C 588.8783,8.7660753 549.37633,8.2297857 509.96032,8.4095033 C 487.89426,111.91372 465.83685,215.42021 443.82473,318.93602 C 530.5549,318.38123 628.84159,326.09641 706.28016,292.8985 C 789.43472,243.35464 816.10006,132.47611 757.49494,53.558337 C 727.36991,19.029845 674.84315,5.7394656 628.24229,8.1529736 z M 633.29381,86.265591 C 659.60432,84.115117 684.23546,103.34275 682.20174,126.28388 C 688.73532,170.12627 670.47746,225.16688 618.28306,238.51467 C 601.68994,241.37842 583.55636,241.01658 566.03807,240.82341 C 576.92585,189.56067 587.81338,138.29792 598.701,87.035176 C 610.2855,87.052078 621.86682,87.346686 633.29381,86.265591 z" id="text3682" style="font-size: 94.3488px; font-style: italic; font-variant: normal; font-weight: bold; font-stretch: normal; text-align: start; line-height: 100%; text-anchor: start; fill: rgb(0, 0, 0); fill-opacity: 1; stroke: none; stroke-width: 1px; stroke-linecap: butt; stroke-linejoin: miter; stroke-opacity: 1; font-family: Arial;"/>
  </g>
</svg>