<?xml version="1.0" encoding="UTF-8" standalone="no"?>
<!-- Generator: Adobe Illustrator 11.0, SVG Export Plug-In  -->
<svg
   xmlns:dc="http://purl.org/dc/elements/1.1/"
   xmlns:cc="http://creativecommons.org/ns#"
   xmlns:rdf="http://www.w3.org/1999/02/22-rdf-syntax-ns#"
   xmlns:svg="http://www.w3.org/2000/svg"
   xmlns="http://www.w3.org/2000/svg"
   xmlns:sodipodi="http://sodipodi.sourceforge.net/DTD/sodipodi-0.dtd"
   xmlns:inkscape="http://www.inkscape.org/namespaces/inkscape"
   width="864.81757"
   height="600"
   viewBox="0 0 600 600"
   xml:space="preserve"
   id="svg1351"
   sodipodi:version="0.32"
   inkscape:version="0.46"
   sodipodi:docname="HD image.svg"
   sodipodi:docbase="C:\Documents and Settings\Owner\My Documents\signbin"
   inkscape:output_extension="org.inkscape.output.svg.inkscape"
   version="1.0"><metadata
   id="metadata1363"><rdf:RDF><cc:Work
       rdf:about=""><dc:format>image/svg+xml</dc:format><dc:type
         rdf:resource="http://purl.org/dc/dcmitype/StillImage" /></cc:Work></rdf:RDF></metadata><sodipodi:namedview
   inkscape:window-height="944"
   inkscape:window-width="1280"
   inkscape:pageshadow="2"
   inkscape:pageopacity="0.0"
   borderopacity="1.0"
   bordercolor="#666666"
   pagecolor="#ffffff"
   id="base"
   inkscape:zoom="0.5"
   inkscape:cx="428.02652"
   inkscape:cy="263.86707"
   inkscape:window-x="-8"
   inkscape:window-y="-8"
   inkscape:current-layer="svg1351"
   showgrid="true"><inkscape:grid
     type="xygrid"
     id="grid2449"
     visible="true"
     enabled="true" /></sodipodi:namedview>
	<defs
   id="defs1353"><inkscape:perspective
   sodipodi:type="inkscape:persp3d"
   inkscape:vp_x="0 : 300 : 1"
   inkscape:vp_y="0 : 1000 : 0"
   inkscape:vp_z="600 : 300 : 1"
   inkscape:persp3d-origin="300 : 200 : 1"
   id="perspective9" />
	
		
		 
		
	
	
		
		 
		
	<inkscape:perspective
   id="perspective2438"
   inkscape:persp3d-origin="300 : 200 : 1"
   inkscape:vp_z="600 : 300 : 1"
   inkscape:vp_y="0 : 1000 : 0"
   inkscape:vp_x="0 : 300 : 1"
   sodipodi:type="inkscape:persp3d" /></defs>
	

<g
   id="g2461"
   transform="translate(-121.40191,0)"><path
     id="Black_Border_1_"
     d="M 853.81759,557 C 853.81759,580.748 826.06848,600 791.83899,600 L 50.978593,600 C 16.749113,600 -11,580.748 -11,557 L -11,43 C -11,19.252 16.749113,0 50.978593,0 L 791.83899,0 C 826.06848,0 853.81759,19.252 853.81759,43 L 853.81759,557 z" /><rect
     x="43"
     y="57"
     width="756.87402"
     height="491"
     id="rect1358"
     style="fill:#ffffff" /><path
     id="text1365"
     d="M 334.5643,463.60256 L 334.5643,322.27269 L 216.46673,322.27269 L 216.46673,463.60256 L 165.16205,463.60256 L 165.16205,139.31827 L 216.46673,139.31827 L 216.46673,270 L 334.5643,270 L 334.5643,139.31827 L 385.86898,139.31827 L 385.86898,463.60256 L 334.5643,463.60256"
     style="font-size:484.00601196px;font-style:normal;font-variant:normal;font-weight:normal;font-stretch:normal;text-align:center;line-height:125%;text-anchor:middle;fill:#000000;fill-opacity:1;stroke:none;stroke-width:1px;stroke-linecap:butt;stroke-linejoin:miter;stroke-opacity:1" /><g
     transform="translate(240.92211,-1.7295132e-2)"
     id="g2441"><path
       style="font-size:484.00601196px;font-style:normal;font-variant:normal;font-weight:normal;font-stretch:normal;text-align:center;line-height:125%;text-anchor:middle;fill:#000000;fill-opacity:1;stroke:none;stroke-width:1px;stroke-linecap:butt;stroke-linejoin:miter;stroke-opacity:1"
       d="M 437.07522,301.01023 C 437.07496,333.60012 432.07357,362.31781 422.07102,387.16337 C 412.39066,411.68641 398.35449,431.04665 379.96246,445.24414 C 373.83152,451.05223 366.57143,455.40828 358.18218,458.31231 C 350.11523,461.21635 341.88713,462.99104 333.49785,463.63638 L 315.1056,463.63638 L 196.27709,463.63638 L 196.27709,139.35209 L 320.91368,139.35209 C 328.9803,139.35241 335.91772,139.67508 341.72596,140.3201 C 347.85653,140.6431 353.34194,141.44977 358.18218,142.74013 C 363.02205,144.03114 367.37811,145.80583 371.25035,148.0642 C 375.1222,150.32321 379.31692,153.06591 383.83451,156.29231 C 400.93585,171.13547 414.00401,190.97971 423.03903,215.8251 C 432.39624,240.34832 437.07496,268.74333 437.07522,301.01023 M 384.80253,301.01023 C 384.80232,279.06879 382.38229,259.54722 377.54243,242.44545 C 373.02484,225.34413 366.73277,212.59864 358.66618,204.20895 C 354.47128,200.33716 349.63122,197.11045 344.14599,194.52882 C 338.66042,191.94772 332.52968,190.65704 325.75375,190.65677 L 247.58177,190.65677 L 247.58177,411.36369 L 318.97766,411.36369 C 327.36695,411.36374 334.30437,410.39573 339.78993,408.45965 C 345.59784,406.52368 350.76057,403.29698 355.27814,398.77952 C 364.95808,389.09947 372.21817,375.86998 377.05842,359.091 C 382.22096,341.98956 384.80232,322.62932 384.80253,301.01023"
       id="path2447"
       sodipodi:nodetypes="ccccccccccssccccccscccccscc" /></g></g></svg>