<?xml version="1.0" encoding="UTF-8" standalone="no"?>
<!-- Generator: Adobe Illustrator 10.0.3, SVG Export Plug-In . SVG Version: 3.0.0 Build 77)  -->
<svg id="svg2" xml:space="preserve" height="128" xmlns:dc="http://purl.org/dc/elements/1.1/" viewBox="0 0 128 128" width="128" version="1.0" xmlns:xlink="http://www.w3.org/1999/xlink" xmlns:cc="http://creativecommons.org/ns#" overflow="visible" xmlns:rdf="http://www.w3.org/1999/02/22-rdf-syntax-ns#" xmlns="http://www.w3.org/2000/svg" enable-background="new 0 0 128 128"><metadata id="metadata97"><rdf:RDF><cc:Work rdf:about=""><dc:format>image/svg+xml</dc:format><dc:type rdf:resource="http://purl.org/dc/dcmitype/StillImage"/></cc:Work></rdf:RDF></metadata><defs id="defs95">
				<linearGradient id="XMLID_2_" y2="110.51" gradientUnits="userSpaceOnUse" y1="18.54" x2="61.502" x1="61.502">
					<stop id="stop35" offset="0"/>
					<stop id="stop37" stop-color="#b5b5b5" offset="1"/>
				</linearGradient>
			<linearGradient id="linearGradient5204" y2="131.86" xlink:href="#XMLID_2_" gradientUnits="userSpaceOnUse" x2="59.464" gradientTransform="matrix(-1.1279 0 0 .73969 133.13 29.058)" y1="102.88" x1="59.463"/><linearGradient id="linearGradient5206" y2="120.73" gradientUnits="userSpaceOnUse" x2="73.438" gradientTransform="matrix(1.1179 0 0 .73969 -.023595 29.058)" y1="89.282" x1="44.869"><stop id="stop2003" stop-color="#fff" offset=".0337"/><stop id="stop2002" stop-color="#878787" offset="1"/></linearGradient><linearGradient id="linearGradient5208" y2="118.3" xlink:href="#XMLID_2_" gradientUnits="userSpaceOnUse" x2="58.567" gradientTransform="matrix(1.1179 0 0 .73969 -.023595 29.058)" y1="85.532" x1="58.567"/><linearGradient id="linearGradient5210" y2="99.784" gradientUnits="userSpaceOnUse" x2="60.891" gradientTransform="matrix(1.2688 0 0 .92715 -13.458 -18.071)" y1="14.045" x1="60.891"><stop id="stop22" stop-color="#fff" offset="0"/><stop id="stop24" stop-color="#9d9d9d" offset=".3678"/><stop id="stop26" stop-color="#2d2d2d" offset=".8052"/><stop id="stop28" offset="1"/></linearGradient><radialGradient id="radialGradient5212" gradientUnits="userSpaceOnUse" cy="122.39" cx="58.777" gradientTransform="matrix(1.4506 0 0 1.0639 -25.025 -25.102)" r="52.36"><stop id="stop42" stop-color="#b8bbda" offset="0"/><stop id="stop44" stop-color="#0d2d7d" offset="1"/></radialGradient><radialGradient id="radialGradient5214" gradientUnits="userSpaceOnUse" cy="60.216" cx="36.222" gradientTransform="matrix(1.5111 0 0 .99567 14.221 -35.403)" r="57.739"><stop id="stop49" stop-color="#b8bbda" offset="0"/><stop id="stop51" stop-color="#0d2d7d" offset="1"/></radialGradient><linearGradient id="linearGradient5216" y2="114.82" gradientUnits="userSpaceOnUse" x2="98.688" gradientTransform="matrix(.79310 0 0 .79310 -12.236 .36926)" y1="123.16" x1="98.688"><stop id="stop3469" stop-color="#fff" offset="0"/><stop id="stop3471" stop-color="#1ed2ff" offset=".32898"/><stop id="stop3473" stop-color="#00738f" offset="1"/></linearGradient><linearGradient id="linearGradient5218" y2="104.1" gradientUnits="userSpaceOnUse" x2="65.047" y1="98.771" x1="65.047"><stop id="stop3503" stop-color="#fff" offset="0"/><stop id="stop3505" stop-color="#fff" stop-opacity="0" offset="1"/></linearGradient></defs>
<g id="g5179" transform="translate(0,-2)"><path id="path16" d="m111.89 107.8c0 6.74-20.57 12.2-45.945 12.2-25.374 0-45.945-5.46-45.945-12.2s20.571-12.207 45.945-12.207c25.375 0 45.945 5.467 45.945 12.207z"/><path id="path31" fill="url(#linearGradient5204)" d="m21.742 107.52c0 5.81 19.84 10.51 44.316 10.51s44.322-4.7 44.322-10.51c0-5.8-19.846-10.505-44.322-10.505s-44.316 4.705-44.316 10.505z"/><path id="path40" opacity=".25" fill="url(#linearGradient5206)" d="m92.151 106.25c0 2.16-11.954 3.91-26.702 3.91-14.75 0-26.707-1.75-26.707-3.91s11.957-3.9 26.707-3.9c14.748 0 26.702 1.74 26.702 3.9z"/><path id="path49" d="m92.151 95.322c0 6.708-11.954 12.138-26.702 12.138-14.75 0-26.707-5.43-26.707-12.138 0-6.703 11.957-12.137 26.707-12.137 14.748 0 26.702 5.434 26.702 12.137z"/><path id="path58" fill="url(#linearGradient5208)" d="m90.308 95.667c0 6.243-11.132 11.303-24.859 11.303-13.733 0-24.861-5.06-24.861-11.303 0-6.241 11.129-11.302 24.861-11.302 13.727 0 24.859 5.06 24.859 11.302z"/><rect id="rect2693" fill-rule="evenodd" ry="2.4983" height="80.716" width="128" y="19.261" x="0" fill="#333"/><path id="path30" opacity="0.81" fill="url(#linearGradient5210)" d="m126.9 96.899c0 1.006-1.12 1.824-2.5 1.824h-121.8c-1.3787 0-2.4966-0.818-2.4966-1.824l0.60651-75.105c0-1.009 1.1191-1.825 2.4984-1.825h121.8c1.37 0 2.49 0.816 2.49 1.825l-0.6 75.105z"/><path id="path46" fill="url(#radialGradient5212)" d="m120.51 87.806c0 0.932-1.03 1.689-2.31 1.689h-108.03c-1.2695 0-2.3009-0.757-2.3009-1.689v-59.979c0-0.933 1.0314-1.69 2.3049-1.69h108.03c1.28 0 2.31 0.757 2.31 1.69v59.979z"/><path id="path53" opacity="0.78" fill="url(#radialGradient5214)" d="m7.869 37.88c0 12.845 25.215 23.258 56.321 23.258 31.103 0 56.32-10.412 56.32-23.258 0-4.292-2.83-8.307-7.74-11.758h-97.164c-4.912 3.45-7.737 7.466-7.737 11.758z"/><path id="path64" d="m68.975 94.379c0 1.624-1.315 2.94-2.94 2.94s-2.943-1.316-2.943-2.94c0-1.626 1.318-2.943 2.943-2.943s2.94 1.317 2.94 2.943z" stroke="#025" stroke-width=".18448" fill="url(#linearGradient5216)"/><path id="path3489" d="m64.781 99.688c-1.055 0.097-1.828 0.902-2.156 1.812-0.078 0.23 0.029 0.49 0.25 0.59 0.587 0.28 1.307 0.5 2.125 0.5 0.859 0 1.609-0.23 2.219-0.53 0.22-0.1 0.327-0.36 0.25-0.59-0.362-1-1.286-1.782-2.438-1.782h-0.156c-0.04-0.001 0.006-0.01-0.094 0z" transform="matrix(1.0849 0 0 1.1666 -4.5236 -24.606)" fill="url(#linearGradient5218)"/></g></svg>
